# xmcd CD database file
#
# Track frame offsets:
#	150
#	24425
#	44270
#	69325
#	88113
#	103308
#	123755
#	144398
#	168518
#
# Disc length: 2580 seconds
#
# Revision: 0
# Processed by: cddbd v1.5.1PL0 Copyright (c) Steve Scherf et al.
# Submitted via: CD2WAV32(EN) R3.19
#
DISCID=730a1209
DTITLE=Neville Brothers - Neville-Ization
DYEAR=1900
DGENRE=
TTITLE0=Fever
TTITLE1=Woman's Gotta Have It
TTITLE2=Mojo Hannah
TTITLE3=Tell It Like It Is
TTITLE4=Why You Wanna Hurt My Heart?
TTITLE5=Fear, Hate, Envy, Jealousy
TTITLE6=Caravan
TTITLE7=Big Chief
TTITLE8=Africa
EXTD=
EXTT0=
EXTT1=
EXTT2=
EXTT3=
EXTT4=
EXTT5=
EXTT6=
EXTT7=
EXTT8=
PLAYORDER=
